<?xml version="1.0" encoding="utf-8" ?>
<svg baseProfile="full" height="420" version="1.1" width="420" xmlns="http://www.w3.org/2000/svg" xmlns:ev="http://www.w3.org/2001/xml-events" xmlns:xlink="http://www.w3.org/1999/xlink"><defs /><line stroke="black" x1="0" x2="420" y1="210" y2="210" /><line stroke="black" x1="210" x2="210" y1="0" y2="420" /><polygon fill="black" points="420,210 410,215 410,205" /><polygon fill="black" points="210,0 205,10 215,10" /><text fill="black" font-size="14px" x="400" y="230">x</text><text fill="black" font-size="14px" x="230" y="20">y</text><text fill="black" font-size="12px" x="350" y="200">R</text><text fill="black" font-size="12px" x="280" y="200">R/2</text><text fill="black" font-size="12px" x="120" y="200">-R/2</text><text fill="black" font-size="12px" x="50" y="200">-R</text><text fill="black" font-size="12px" x="220" y="70">R</text><text fill="black" font-size="12px" x="220" y="140">R/2</text><text fill="black" font-size="12px" x="220" y="280">-R/2</text><text fill="black" font-size="12px" x="220" y="350">-R</text><rect fill="blue" fill-opacity="0.4" height="140" stroke="blue" width="140" x="70" y="70" /><polygon fill="blue" fill-opacity="0.4" points="210,210 350,210 210,140" stroke="blue" /><path d="M 210 210 L 280 210 A 70 70 0 0 1 210 280 Z" fill="blue" fill-opacity="0.4" stroke="blue" /></svg>